<svg xmlns="http://www.w3.org/2000/svg" style="isolation:isolate" width="20" height="22"><path d="M9.333 16.5h1.334v1.375H9.333V16.5zm0 2.75h1.334c.736 0 1.333-.616 1.333-1.375V16.5c0-.759-.597-1.375-1.333-1.375H9.333C8.597 15.125 8 15.741 8 16.5v1.375c0 .759.597 1.375 1.333 1.375zM4 16.5h1.333v1.375H4V16.5zm0 2.75h1.333c.736 0 1.334-.616 1.334-1.375V16.5c0-.759-.598-1.375-1.334-1.375H4c-.736 0-1.333.616-1.333 1.375v1.375c0 .759.597 1.375 1.333 1.375zM9.333 11h1.334v1.375H9.333V11zm0 2.75h1.334c.736 0 1.333-.616 1.333-1.375V11c0-.759-.597-1.375-1.333-1.375H9.333C8.597 9.625 8 10.241 8 11v1.375c0 .759.597 1.375 1.333 1.375zM4 11h1.333v1.375H4V11zm0 2.75h1.333c.736 0 1.334-.616 1.334-1.375V11c0-.759-.598-1.375-1.334-1.375H4c-.736 0-1.333.616-1.333 1.375v1.375c0 .759.597 1.375 1.333 1.375zM18.667 5.5H1.333V4.125c0-.759.598-1.375 1.334-1.375h2.666v.688c0 .38.298.687.667.687a.677.677 0 0 0 .667-.688V2.75h6.666v.688c0 .38.298.687.667.687a.677.677 0 0 0 .667-.688V2.75h2.666c.736 0 1.334.616 1.334 1.375V5.5zm0 13.75c0 .759-.598 1.375-1.334 1.375H2.667c-.736 0-1.334-.616-1.334-1.375V6.875h17.334V19.25zM17.333 1.375h-2.666V.687A.677.677 0 0 0 14 0a.677.677 0 0 0-.667.688v.687H6.667V.687A.677.677 0 0 0 6 0a.677.677 0 0 0-.667.688v.687H2.667C1.194 1.375 0 2.606 0 4.125V19.25C0 20.769 1.194 22 2.667 22h14.666C18.806 22 20 20.769 20 19.25V4.125c0-1.519-1.194-2.75-2.667-2.75zM14.667 11H16v1.375h-1.333V11zm0 2.75H16c.736 0 1.333-.616 1.333-1.375V11c0-.759-.597-1.375-1.333-1.375h-1.333c-.736 0-1.334.616-1.334 1.375v1.375c0 .759.598 1.375 1.334 1.375zm0 2.75H16v1.375h-1.333V16.5zm0 2.75H16c.736 0 1.333-.616 1.333-1.375V16.5c0-.759-.597-1.375-1.333-1.375h-1.333c-.736 0-1.334.616-1.334 1.375v1.375c0 .759.598 1.375 1.334 1.375z" fill-rule="evenodd"/></svg>