<svg xmlns="http://www.w3.org/2000/svg" style="isolation:isolate" width="22.073" height="22.425"><path d="M.905 1.564A.655.655 0 0 0 1.56.907a.656.656 0 1 0-.655.657zm0 3.284a.655.655 0 0 0 .655-.657.656.656 0 1 0-.655.657zm0 3.285a.655.655 0 0 0 .655-.657.656.656 0 1 0-.655.657zm0 3.284a.656.656 0 1 0 0-1.314.656.656 0 0 0-.655.657c0 .364.293.657.655.657zm0 3.285a.656.656 0 1 0 0-1.314.656.656 0 0 0 0 1.314zm0 3.284a.656.656 0 1 0 0-1.314.656.656 0 0 0 0 1.314zm20.263 2.875a.656.656 0 0 0 0 1.314.655.655 0 0 0 .655-.657.656.656 0 0 0-.655-.657zm-3.274 0a.656.656 0 0 0 0 1.314.655.655 0 0 0 .655-.657.656.656 0 0 0-.655-.657zm-3.274 0a.656.656 0 0 0 0 1.314.655.655 0 0 0 .655-.657.656.656 0 0 0-.655-.657zm-3.274 0a.656.656 0 0 0 0 1.314.655.655 0 0 0 .655-.657.656.656 0 0 0-.655-.657zm-3.274 0a.656.656 0 0 0 0 1.314.655.655 0 0 0 .655-.657.656.656 0 0 0-.655-.657zm-3.274 0a.656.656 0 0 0 0 1.314.655.655 0 0 0 .655-.657.656.656 0 0 0-.655-.657z" fill-rule="evenodd"/><path d="M.905 1.564A.655.655 0 0 0 1.56.907a.656.656 0 1 0-.655.657zm0 3.284a.655.655 0 0 0 .655-.657.656.656 0 1 0-.655.657zm0 3.285a.655.655 0 0 0 .655-.657.656.656 0 1 0-.655.657zm0 3.284a.656.656 0 1 0 0-1.314.656.656 0 0 0-.655.657c0 .364.293.657.655.657zm0 3.285a.656.656 0 1 0 0-1.314.656.656 0 0 0 0 1.314zm0 3.284a.656.656 0 1 0 0-1.314.656.656 0 0 0 0 1.314zm20.263 2.875a.656.656 0 0 0 0 1.314.655.655 0 0 0 .655-.657.656.656 0 0 0-.655-.657zm-3.274 0a.656.656 0 0 0 0 1.314.655.655 0 0 0 .655-.657.656.656 0 0 0-.655-.657zm-3.274 0a.656.656 0 0 0 0 1.314.655.655 0 0 0 .655-.657.656.656 0 0 0-.655-.657zm-3.274 0a.656.656 0 0 0 0 1.314.655.655 0 0 0 .655-.657.656.656 0 0 0-.655-.657zm-3.274 0a.656.656 0 0 0 0 1.314.655.655 0 0 0 .655-.657.656.656 0 0 0-.655-.657zm-3.274 0a.656.656 0 0 0 0 1.314.655.655 0 0 0 .655-.657.656.656 0 0 0-.655-.657z" fill="none" vector-effect="non-scaling-stroke" stroke-width=".5" stroke="currentColor" stroke-linecap="square" stroke-miterlimit="3" style="isolation:isolate"/><path d="M15.361 7.395l-.083.051-2.131 2.862a1.94 1.94 0 0 0-1.183-.402c-1.098 0-1.99.921-1.99 2.056 0 .136.013.268.037.396l-3.584 2.178a1.988 1.988 0 0 0-1.798-1.172c-1.098 0-1.99.921-1.99 2.056 0 .609.257 1.157.665 1.533L.549 21.222l-.299.411.796.617.299-.514 2.833-4.313c.145.034.296.053.451.053 1.034 0 1.885-.816 1.981-1.858l.209-.05 3.618-2.288c.365.45.914.738 1.527.738 1.099 0 1.99-.921 1.99-2.056 0-.274-.051-.536-.146-.775l2.068-2.918.069-.044a1.94 1.94 0 0 0 1.268.472c1.099 0 1.99-.921 1.99-2.056a2.08 2.08 0 0 0-.617-1.488l2.365-3.875.299-.411-.896-.617-.199.411-2.487 3.978a1.933 1.933 0 0 0-.455-.054c-1.098 0-1.99.921-1.99 2.056 0 .266.049.52.138.754m.857-.686c0-.567.446-1.028.995-1.028.55 0 .996.46.996 1.028 0 .567-.446 1.028-.996 1.028-.549 0-.995-.46-.995-1.028m-5.248 5.253c0-.567.446-1.028.995-1.028.55 0 .996.46.996 1.028 0 .567-.446 1.028-.996 1.028-.549 0-.995-.46-.995-1.028m4.392-4.567zM3.634 15.42c0-.568.446-1.028.995-1.028.55 0 .995.46.995 1.028 0 .567-.446 1.028-.995 1.028-.55 0-.995-.46-.995-1.028z" fill-rule="evenodd"/></svg>