<svg xmlns="http://www.w3.org/2000/svg" style="isolation:isolate" width="21.892" height="21.922"><path d="M9.92 15.071c2.83 0 5.13-2.804 5.13-6.25 0-3.448-2.3-6.252-5.13-6.252-1.4 0-2.707.67-3.68 1.887C5.305 5.63 4.789 7.18 4.79 8.82c0 3.447 2.301 6.251 5.13 6.251zm0-11.132c2.074 0 3.763 2.19 3.763 4.881 0 2.693-1.689 4.881-3.763 4.881s-3.763-2.188-3.764-4.88c0-2.692 1.688-4.882 3.764-4.882zm4.31 10.447a.684.684 0 1 0 0 1.37 4.25 4.25 0 0 1 4.242 4.25c0 .3-.246.546-.548.546H1.914a.547.547 0 0 1-.546-.547 4.25 4.25 0 0 1 4.241-4.248.684.684 0 1 0 0-1.37C2.516 14.386 0 16.906 0 20.004c0 1.057.86 1.917 1.915 1.917h16.009c1.056 0 1.916-.86 1.916-1.917 0-3.098-2.518-5.619-5.61-5.619zM10.42 1.808a3.01 3.01 0 0 1 1.552-.437c2.075 0 3.763 2.19 3.763 4.88 0 .483-.053.957-.159 1.41a.684.684 0 1 0 1.332.312 7.644 7.644 0 0 0 .195-1.722c0-3.446-2.3-6.251-5.13-6.251-.779 0-1.555.217-2.249.628a.686.686 0 0 0 .696 1.18zm6 9.838a.684.684 0 1 0 0 1.37c2.338 0 4.104 1.953 4.104 4.294a.527.527 0 0 1-.047.224.686.686 0 0 0 .626.963.686.686 0 0 0 .625-.407c.109-.246.164-.508.164-.782 0-3.095-2.38-5.662-5.473-5.662z" fill-rule="evenodd"/></svg>